<?xml version="1.0" encoding="utf-8"?>
<!-- Generator: Adobe Illustrator 27.5.0, SVG Export Plug-In . SVG Version: 6.00 Build 0)  -->
<svg version="1.1" id="Layer_1" xmlns="http://www.w3.org/2000/svg" xmlns:xlink="http://www.w3.org/1999/xlink" x="0px" y="0px"
	 viewBox="0 0 3500 3500" style="enable-background:new 0 0 3500 3500;" xml:space="preserve">
<g>
	<defs>
		<rect id="SVGID_1_" x="0" width="3500" height="3500"/>
	</defs>
	<clipPath id="SVGID_00000034809583811220831380000015193500481560396976_">
		<use xlink:href="#SVGID_1_"  style="overflow:visible;"/>
	</clipPath>
	
		<rect x="0" style="clip-path:url(#SVGID_00000034809583811220831380000015193500481560396976_);fill:#FFFFFF;" width="3500" height="3500"/>
	<g style="clip-path:url(#SVGID_00000034809583811220831380000015193500481560396976_);">
		<path style="fill:#ADADAD;" d="M1323.695,3210.011l0.053-48.408l17.51,0.019c3.831,0.005,7.12,1.271,9.867,3.797
			c2.746,2.483,4.118,5.616,4.114,9.402c-0.005,4.778-2.195,8.135-6.569,10.067l0,0.271c2.478,0.814,4.46,2.226,5.945,4.231
			c1.485,2.008,2.226,4.296,2.224,6.865c-0.004,3.967-1.451,7.255-4.337,9.866c-2.798,2.611-6.248,3.914-10.349,3.91
			L1323.695,3210.011z M1329.939,3188.18l-0.017,15.889l12.507,0.014c2.253,0.002,4.169-0.784,5.749-2.36
			c1.534-1.576,2.303-3.445,2.305-5.609c0.002-2.118-0.785-3.967-2.361-5.547c-1.576-1.579-3.559-2.37-5.947-2.372L1329.939,3188.18
			z M1329.961,3167.56l-0.016,14.806l11.29,0.012c2.208,0.003,4.058-0.738,5.546-2.224c1.489-1.531,2.235-3.266,2.237-5.204
			c0.002-1.894-0.718-3.606-2.158-5.141c-1.441-1.489-3.221-2.234-5.339-2.236L1329.961,3167.56z"/>
		<path style="fill:#ADADAD;" d="M1378.997,3211.154c-4.868-0.006-8.878-1.677-12.029-5.017c-3.152-3.338-4.725-7.555-4.719-12.648
			c0.005-5.047,1.542-9.249,4.611-12.604c3.068-3.354,6.992-5.029,11.77-5.024c4.912,0.006,8.821,1.599,11.725,4.779
			s4.353,7.634,4.347,13.357l-0.068,0.676l-26.03-0.028c0.086,3.245,1.166,5.861,3.237,7.847c2.07,1.986,4.548,2.979,7.434,2.982
			c3.965,0.004,7.078-1.975,9.336-5.939l5.541,2.71c-1.491,2.794-3.555,4.978-6.193,6.552
			C1385.319,3210.371,1382.332,3211.156,1378.997,3211.154z M1369.083,3189.507l18.998,0.021c-0.178-2.3-1.111-4.205-2.8-5.717
			c-1.688-1.511-3.953-2.27-6.792-2.272c-2.344-0.003-4.361,0.717-6.053,2.157
			C1370.743,3185.137,1369.625,3187.073,1369.083,3189.507z"/>
		<path style="fill:#ADADAD;" d="M1427.416,3200.929c-0.003,2.885-1.268,5.317-3.794,7.298c-2.527,1.979-5.706,2.969-9.537,2.965
			c-3.336-0.004-6.264-0.875-8.786-2.613c-2.523-1.737-4.322-4.027-5.401-6.868l5.547-2.36c0.809,1.985,1.991,3.529,3.544,4.636
			s3.254,1.659,5.103,1.662c1.983,0.002,3.64-0.424,4.971-1.28c1.33-0.854,1.997-1.867,1.998-3.04
			c0.002-2.118-1.618-3.675-4.862-4.67l-5.678-1.426c-6.444-1.63-9.663-4.743-9.658-9.341c0.003-3.019,1.233-5.441,3.692-7.264
			c2.458-1.823,5.603-2.732,9.434-2.729c2.93,0.004,5.577,0.706,7.942,2.104c2.365,1.4,4.019,3.273,4.963,5.617l-5.546,2.293
			c-0.63-1.397-1.654-2.492-3.073-3.283c-1.419-0.789-3.007-1.186-4.765-1.188c-1.623-0.002-3.077,0.401-4.362,1.212
			c-1.285,0.811-1.929,1.802-1.93,2.973c-0.002,1.894,1.777,3.247,5.337,4.063l5.001,1.289
			C1424.134,3192.61,1427.421,3195.925,1427.416,3200.929z"/>
		<path style="fill:#ADADAD;" d="M1446.944,3210.686c-2.704-0.003-4.946-0.839-6.725-2.509c-1.779-1.669-2.689-3.991-2.73-6.967
			l0.02-18.524l-5.814-0.007l0.006-5.679l5.814,0.007l0.011-10.142l6.22,0.006l-0.011,10.142l8.113,0.009l-0.006,5.679l-8.113-0.009
			l-0.018,16.496c-0.002,2.209,0.424,3.709,1.279,4.498c0.855,0.79,1.825,1.186,2.906,1.187c0.496,0.001,0.98-0.055,1.454-0.167
			c0.473-0.112,0.913-0.258,1.319-0.438l1.955,5.546C1451,3210.397,1449.107,3210.688,1446.944,3210.686z"/>
		<path style="fill:#ADADAD;" d="M1490.481,3211.274c-4.914-0.005-8.99-1.677-12.231-5.016c-3.198-3.429-4.792-7.646-4.787-12.648
			c0.005-5.093,1.609-9.306,4.814-12.638c3.249-3.332,7.329-4.995,12.243-4.99c3.38,0.004,6.331,0.852,8.854,2.545
			s4.413,4.027,5.672,7.004l-5.682,2.36c-1.753-4.148-4.839-6.226-9.256-6.23c-2.84-0.003-5.298,1.144-7.373,3.44
			c-2.03,2.297-3.048,5.135-3.051,8.515c-0.004,3.381,1.007,6.223,3.033,8.522c2.07,2.301,4.526,3.453,7.366,3.456
			c4.552,0.005,7.754-2.063,9.607-6.209l5.542,2.372c-1.221,2.973-3.128,5.304-5.721,6.991
			C1496.916,3210.436,1493.906,3211.278,1490.481,3211.274z"/>
		<path style="fill:#ADADAD;" d="M1512.034,3161.807l6.22,0.007l-0.017,15.28l-0.276,4.597h0.271
			c0.948-1.621,2.403-2.972,4.365-4.052c1.962-1.079,4.001-1.617,6.121-1.615c4.057,0.004,7.176,1.169,9.36,3.491
			c2.184,2.325,3.274,5.627,3.269,9.909l-0.022,20.823l-6.22-0.007l0.021-19.606c0.006-5.95-2.627-8.928-7.901-8.934
			c-2.525-0.003-4.655,1.043-6.393,3.138c-1.737,2.094-2.607,4.538-2.61,7.332l-0.02,18.052l-6.22-0.007L1512.034,3161.807z"/>
		<path style="fill:#ADADAD;" d="M1548.103,3193.691c0.005-5.093,1.609-9.306,4.814-12.638c3.249-3.332,7.329-4.995,12.243-4.99
			c4.912,0.006,8.967,1.678,12.164,5.017c3.241,3.34,4.859,7.555,4.854,12.647c-0.006,5.139-1.633,9.353-4.881,12.639
			c-3.205,3.332-7.263,4.995-12.175,4.989c-4.914-0.005-8.99-1.677-12.231-5.016C1549.691,3203,1548.097,3198.784,1548.103,3193.691
			z M1554.323,3193.697c-0.004,3.562,1.029,6.448,3.1,8.658c2.071,2.211,4.638,3.317,7.704,3.32c3.064,0.004,5.635-1.097,7.71-3.304
			c2.075-2.206,3.116-5.09,3.12-8.651c0.004-3.516-1.031-6.378-3.101-8.589c-2.117-2.255-4.685-3.386-7.704-3.39
			c-3.021-0.003-5.59,1.122-7.711,3.373C1555.366,3187.322,1554.327,3190.181,1554.323,3193.697z"/>
		<path style="fill:#ADADAD;" d="M1596.608,3165.752c-0.001,1.218-0.431,2.255-1.288,3.109c-0.857,0.855-1.895,1.282-3.111,1.281
			c-1.217-0.002-2.254-0.431-3.108-1.288c-0.856-0.856-1.283-1.894-1.281-3.111c0.001-1.217,0.43-2.253,1.288-3.108
			c0.856-0.854,1.895-1.283,3.111-1.281c1.217,0.001,2.253,0.432,3.108,1.288C1596.182,3163.499,1596.61,3164.535,1596.608,3165.752
			z M1595.312,3177.178l-0.036,33.128l-6.22-0.007l0.036-33.128L1595.312,3177.178z"/>
		<path style="fill:#ADADAD;" d="M1619.545,3211.414c-4.914-0.006-8.99-1.677-12.231-5.017c-3.198-3.428-4.792-7.646-4.787-12.648
			c0.005-5.093,1.609-9.305,4.814-12.638c3.249-3.331,7.329-4.995,12.243-4.989c3.38,0.004,6.331,0.852,8.854,2.545
			s4.413,4.027,5.672,7.003l-5.682,2.361c-1.753-4.148-4.839-6.227-9.256-6.23c-2.84-0.004-5.298,1.144-7.373,3.439
			c-2.03,2.297-3.048,5.136-3.051,8.516c-0.004,3.381,1.007,6.222,3.033,8.521c2.07,2.302,4.526,3.453,7.366,3.457
			c4.552,0.005,7.754-2.064,9.607-6.21l5.542,2.372c-1.221,2.974-3.128,5.305-5.721,6.992
			C1625.979,3210.575,1622.97,3211.418,1619.545,3211.414z"/>
		<path style="fill:#ADADAD;" d="M1655.581,3211.453c-4.868-0.005-8.878-1.677-12.029-5.016c-3.152-3.339-4.725-7.556-4.719-12.649
			c0.005-5.047,1.542-9.249,4.611-12.604c3.068-3.354,6.992-5.029,11.77-5.023c4.912,0.005,8.821,1.598,11.725,4.779
			c2.904,3.181,4.353,7.633,4.347,13.356l-0.068,0.676l-26.03-0.028c0.086,3.246,1.166,5.862,3.237,7.847
			c2.07,1.986,4.548,2.979,7.434,2.982c3.965,0.005,7.078-1.975,9.336-5.938l5.541,2.71c-1.491,2.793-3.555,4.978-6.193,6.552
			C1661.903,3210.671,1658.916,3211.457,1655.581,3211.453z M1645.667,3189.808l18.998,0.021c-0.178-2.299-1.111-4.204-2.8-5.716
			s-3.953-2.27-6.792-2.273c-2.344-0.002-4.361,0.718-6.053,2.158C1647.327,3185.438,1646.209,3187.374,1645.667,3189.808z"/>
		<path style="fill:#ADADAD;" d="M1708.505,3161.48c2.253,0.002,4.1,0.388,5.542,1.155l-1.696,5.475
			c-1.081-0.542-2.298-0.813-3.65-0.815c-1.533-0.002-2.784,0.527-3.754,1.585c-0.971,1.059-1.456,2.466-1.458,4.224l-0.004,4.192
			l8.654,0.01l-0.006,5.679l-8.654-0.01l-0.03,27.449l-6.22-0.007l0.03-27.449l-6.22-0.007l0.006-5.679l6.22,0.007l0.005-4.801
			c0.004-3.289,1.054-5.948,3.152-7.974C1702.521,3162.488,1705.214,3161.476,1708.505,3161.48z"/>
		<path style="fill:#ADADAD;" d="M1715.501,3193.872c0.005-5.093,1.609-9.306,4.814-12.638c3.249-3.331,7.329-4.995,12.243-4.989
			c4.912,0.005,8.967,1.678,12.164,5.016c3.241,3.34,4.859,7.556,4.854,12.648c-0.006,5.139-1.633,9.352-4.881,12.638
			c-3.205,3.333-7.263,4.995-12.175,4.99c-4.914-0.006-8.99-1.677-12.231-5.017
			C1717.09,3203.182,1715.495,3198.966,1715.501,3193.872z M1721.721,3193.879c-0.004,3.562,1.029,6.447,3.1,8.657
			c2.071,2.211,4.638,3.317,7.704,3.321c3.064,0.003,5.635-1.098,7.71-3.305c2.075-2.206,3.116-5.089,3.12-8.65
			c0.004-3.516-1.031-6.379-3.101-8.59c-2.117-2.255-4.685-3.386-7.704-3.389c-3.021-0.004-5.59,1.121-7.711,3.372
			C1722.764,3187.503,1721.725,3190.364,1721.721,3193.879z"/>
		<path style="fill:#ADADAD;" d="M1762.133,3210.487l-6.22-0.006l0.036-33.128l5.949,0.006l-0.006,5.408h0.271
			c0.633-1.757,1.93-3.253,3.893-4.491c1.962-1.237,3.89-1.855,5.782-1.854c1.803,0.002,3.335,0.274,4.597,0.816l-1.899,6.016
			c-0.767-0.316-1.983-0.476-3.65-0.478c-2.344-0.002-4.385,0.941-6.121,2.833c-1.738,1.891-2.608,4.099-2.611,6.622
			L1762.133,3210.487z"/>
		<path style="fill:#ADADAD;" d="M1804.252,3210.532l-6.22-0.007l0.036-33.128l5.949,0.007l-0.005,4.597h0.271
			c0.948-1.621,2.403-2.972,4.365-4.052c1.961-1.079,3.911-1.617,5.85-1.615c2.435,0.002,4.573,0.569,6.421,1.697
			c1.847,1.129,3.197,2.685,4.052,4.669c2.754-4.233,6.565-6.348,11.433-6.343c3.831,0.004,6.782,1.181,8.854,3.525
			c2.069,2.346,3.104,5.682,3.099,10.009l-0.022,20.688l-6.22-0.007l0.021-19.742c0.003-3.109-0.559-5.352-1.684-6.728
			s-3.018-2.066-5.676-2.069c-2.39-0.002-4.396,1.01-6.021,3.037c-1.624,2.026-2.438,4.415-2.441,7.163l-0.02,18.322l-6.221-0.007
			l0.021-19.742c0.003-3.109-0.558-5.353-1.683-6.729c-1.126-1.375-3.018-2.065-5.677-2.068c-2.39-0.003-4.396,1.01-6.021,3.036
			s-2.439,4.415-2.442,7.163L1804.252,3210.532z"/>
		<path style="fill:#ADADAD;" d="M1855.11,3194.024c0.006-5.093,1.61-9.305,4.814-12.638c3.249-3.331,7.33-4.995,12.243-4.989
			c4.912,0.005,8.967,1.678,12.163,5.016c3.243,3.34,4.86,7.556,4.854,12.648c-0.005,5.139-1.632,9.352-4.882,12.638
			c-3.203,3.333-7.262,4.995-12.174,4.99c-4.913-0.006-8.99-1.677-12.232-5.017C1856.7,3203.334,1855.105,3199.117,1855.11,3194.024
			z M1861.331,3194.031c-0.004,3.562,1.029,6.447,3.101,8.657c2.07,2.212,4.639,3.317,7.704,3.321
			c3.064,0.003,5.635-1.098,7.711-3.305c2.075-2.205,3.115-5.089,3.119-8.65c0.004-3.516-1.03-6.378-3.101-8.59
			c-2.117-2.255-4.685-3.386-7.703-3.389c-3.021-0.004-5.592,1.122-7.712,3.372
			C1862.374,3187.655,1861.335,3190.515,1861.331,3194.031z"/>
		<path style="fill:#ADADAD;" d="M1913.371,3211.734c-2.434-0.003-4.654-0.524-6.658-1.563c-2.005-1.038-3.547-2.414-4.627-4.129
			h-0.271l-0.005,4.598l-5.949-0.007l0.053-48.408l6.22,0.007l-0.017,15.28l-0.275,4.597h0.271c1.084-1.711,2.628-3.084,4.636-4.119
			c2.006-1.034,4.228-1.55,6.661-1.547c4.371,0.005,8.065,1.722,11.082,5.149c3.106,3.475,4.657,7.646,4.651,12.513
			c-0.005,4.913-1.564,9.081-4.679,12.503C1921.44,3210.03,1917.742,3211.739,1913.371,3211.734z M1912.362,3206.053
			c2.976,0.003,5.478-1.12,7.509-3.372c2.03-2.206,3.048-5.068,3.052-8.584c0.004-3.47-1.008-6.333-3.033-8.589
			c-2.026-2.255-4.525-3.386-7.501-3.389c-3.02-0.004-5.546,1.121-7.575,3.372c-1.987,2.252-2.981,5.113-2.985,8.583
			c-0.004,3.516,0.984,6.402,2.967,8.657C1906.819,3204.943,1909.343,3206.049,1912.362,3206.053z"/>
		<path style="fill:#ADADAD;" d="M1943.912,3166.13c-0.001,1.218-0.432,2.254-1.288,3.108c-0.857,0.855-1.894,1.282-3.111,1.281
			c-1.217-0.002-2.254-0.431-3.108-1.288c-0.855-0.856-1.283-1.894-1.282-3.111c0.002-1.217,0.432-2.253,1.289-3.108
			c0.856-0.854,1.894-1.283,3.11-1.281c1.218,0.001,2.254,0.432,3.109,1.288C1943.485,3163.876,1943.914,3164.913,1943.912,3166.13z
			 M1942.615,3177.555l-0.036,33.128l-6.22-0.007l0.036-33.128L1942.615,3177.555z"/>
		<path style="fill:#ADADAD;" d="M1958.316,3162.292l-0.053,48.408l-6.22-0.007l0.053-48.408L1958.316,3162.292z"/>
		<path style="fill:#ADADAD;" d="M1981.724,3211.808c-4.868-0.006-8.878-1.677-12.029-5.017c-3.151-3.338-4.725-7.555-4.72-12.648
			c0.006-5.047,1.543-9.249,4.611-12.604c3.068-3.354,6.992-5.029,11.771-5.024c4.912,0.006,8.82,1.599,11.725,4.779
			c2.903,3.181,4.353,7.634,4.347,13.357l-0.069,0.676l-26.029-0.028c0.086,3.245,1.166,5.861,3.236,7.847
			c2.071,1.986,4.55,2.979,7.435,2.982c3.966,0.004,7.077-1.975,9.337-5.939l5.541,2.71c-1.49,2.794-3.556,4.979-6.194,6.553
			C1988.046,3211.026,1985.059,3211.811,1981.724,3211.808z M1971.809,3190.162l18.998,0.021c-0.179-2.299-1.111-4.205-2.8-5.716
			c-1.688-1.512-3.952-2.271-6.792-2.273c-2.344-0.003-4.361,0.717-6.054,2.157
			C1973.47,3185.791,1972.353,3187.728,1971.809,3190.162z"/>
		<path style="fill:#ADADAD;" d="M2033.278,3176.572c4.598,0.005,8.224,1.237,10.881,3.696c2.656,2.46,3.982,5.83,3.979,10.111
			l-0.022,20.418l-5.949-0.006l0.005-4.598h-0.271c-2.573,3.783-6.001,5.673-10.283,5.668c-3.65-0.004-6.703-1.089-9.157-3.255
			c-2.455-2.167-3.68-4.872-3.677-8.117c0.004-3.425,1.303-6.151,3.896-8.177c2.595-2.025,6.056-3.036,10.382-3.031
			c3.695,0.004,6.737,0.684,9.126,2.038l0.001-1.42c0.003-2.163-0.853-4-2.563-5.513c-1.712-1.512-3.716-2.269-6.015-2.271
			c-3.471-0.004-6.222,1.458-8.253,4.386l-5.473-3.454C2022.909,3178.723,2027.373,3176.565,2033.278,3176.572z M2025.206,3200.631
			c-0.002,1.623,0.685,2.976,2.059,4.059c1.373,1.084,2.983,1.627,4.832,1.629c2.613,0.003,4.947-0.964,7.001-2.9
			c2.052-1.935,3.081-4.21,3.084-6.825c-1.938-1.533-4.642-2.303-8.111-2.307c-2.525-0.003-4.632,0.604-6.323,1.818
			S2025.208,3198.829,2025.206,3200.631z"/>
		<path style="fill:#ADADAD;" d="M2073.737,3211.907c-2.434-0.003-4.654-0.523-6.658-1.563c-2.005-1.039-3.547-2.414-4.627-4.13
			h-0.271l0.266,4.598l-0.016,14.604l-6.22-0.007l0.052-47.731l5.949,0.007l-0.005,4.597h0.271c1.084-1.71,2.628-3.084,4.636-4.118
			c2.006-1.034,4.228-1.551,6.661-1.548c4.371,0.005,8.065,1.722,11.082,5.149c3.106,3.476,4.657,7.646,4.651,12.513
			c-0.005,4.913-1.564,9.082-4.679,12.503C2081.807,3210.203,2078.108,3211.912,2073.737,3211.907z M2072.729,3206.227
			c2.975,0.003,5.477-1.12,7.508-3.372c2.03-2.206,3.048-5.067,3.052-8.583c0.004-3.47-1.008-6.334-3.033-8.59
			c-2.026-2.255-4.525-3.386-7.5-3.389c-3.021-0.004-5.546,1.122-7.576,3.372c-1.987,2.252-2.981,5.113-2.985,8.583
			c-0.004,3.516,0.984,6.402,2.967,8.657C2067.187,3205.117,2069.709,3206.223,2072.729,3206.227z"/>
		<path style="fill:#ADADAD;" d="M2113.086,3211.95c-2.434-0.003-4.654-0.523-6.658-1.563c-2.005-1.038-3.547-2.414-4.627-4.129
			h-0.271l0.266,4.598l-0.016,14.604l-6.22-0.007l0.052-47.731l5.949,0.007l-0.005,4.597h0.271c1.084-1.711,2.628-3.084,4.636-4.119
			c2.006-1.033,4.228-1.55,6.661-1.547c4.371,0.005,8.065,1.722,11.082,5.149c3.106,3.475,4.657,7.646,4.651,12.513
			c-0.005,4.913-1.564,9.081-4.679,12.503C2121.155,3210.246,2117.457,3211.955,2113.086,3211.95z M2112.078,3206.27
			c2.975,0.003,5.477-1.12,7.508-3.372c2.03-2.206,3.048-5.068,3.052-8.584c0.004-3.47-1.008-6.333-3.033-8.589
			c-2.026-2.255-4.525-3.386-7.5-3.389c-3.021-0.004-5.546,1.121-7.576,3.372c-1.987,2.252-2.981,5.113-2.985,8.583
			c-0.004,3.516,0.984,6.402,2.967,8.657C2106.535,3205.159,2109.058,3206.266,2112.078,3206.27z"/>
		<path style="fill:#ADADAD;" d="M2160.896,3201.726c-0.003,2.885-1.269,5.316-3.794,7.298c-2.527,1.979-5.705,2.968-9.536,2.964
			c-3.336-0.004-6.265-0.875-8.786-2.613c-2.522-1.737-4.323-4.027-5.401-6.868l5.547-2.36c0.809,1.985,1.99,3.53,3.544,4.636
			c1.555,1.106,3.254,1.66,5.103,1.662c1.983,0.002,3.64-0.424,4.971-1.279c1.33-0.854,1.996-1.867,1.998-3.04
			c0.002-2.118-1.619-3.675-4.863-4.671l-5.678-1.426c-6.444-1.629-9.662-4.743-9.657-9.341c0.003-3.019,1.233-5.44,3.692-7.264
			c2.458-1.823,5.603-2.731,9.435-2.728c2.929,0.003,5.576,0.705,7.941,2.104s4.02,3.272,4.963,5.616l-5.546,2.293
			c-0.631-1.397-1.653-2.492-3.072-3.282c-1.42-0.79-3.008-1.187-4.766-1.188c-1.622-0.001-3.077,0.402-4.362,1.213
			c-1.285,0.81-1.929,1.801-1.93,2.972c-0.002,1.894,1.776,3.247,5.337,4.063l5.001,1.29
			C2157.613,3193.406,2160.901,3196.722,2160.896,3201.726z"/>
		<path style="fill:#ADADAD;" d="M2169.733,3218.502l-2.905-1.897l3.657-5.674c-0.947-0.182-1.747-0.655-2.398-1.423
			c-0.654-0.767-0.979-1.691-0.978-2.772c0.001-1.307,0.452-2.4,1.355-3.278c0.901-0.878,1.984-1.316,3.247-1.314
			c1.307,0.001,2.399,0.442,3.277,1.322c0.878,0.879,1.316,1.974,1.315,3.28c-0.002,1.217-0.454,2.546-1.357,3.986
			L2169.733,3218.502z"/>
		<path style="fill:#ADADAD;" d="M1536.067,3258.244l-10.718,33.116l-6.355-0.007l-8.221-25.43l-8.209,25.412l-6.288-0.007
			l-10.646-33.14l6.49,0.007l7.343,25.023h0.067l8.208-25.006l6.423,0.007l8.154,25.023h0.068l7.329-25.007L1536.067,3258.244z"/>
		<path style="fill:#ADADAD;" d="M1555.637,3292.476c-4.868-0.005-8.878-1.677-12.029-5.016s-4.724-7.556-4.719-12.649
			c0.006-5.047,1.542-9.249,4.611-12.604c3.069-3.354,6.992-5.029,11.77-5.023c4.912,0.005,8.821,1.598,11.725,4.779
			c2.904,3.181,4.353,7.633,4.346,13.356l-0.068,0.676l-26.03-0.028c0.086,3.246,1.166,5.862,3.237,7.847
			c2.07,1.986,4.549,2.979,7.434,2.982c3.965,0.005,7.078-1.975,9.336-5.938l5.541,2.71c-1.491,2.793-3.555,4.978-6.194,6.552
			C1561.959,3291.694,1558.972,3292.48,1555.637,3292.476z M1545.722,3270.83l18.998,0.021c-0.178-2.299-1.111-4.204-2.799-5.716
			c-1.689-1.512-3.953-2.27-6.792-2.273c-2.344-0.002-4.362,0.718-6.053,2.158C1547.383,3266.46,1546.266,3268.397,1545.722,3270.83
			z"/>
		<path style="fill:#ADADAD;" d="M1595.864,3292.52c-2.434-0.003-4.654-0.523-6.658-1.563c-2.005-1.038-3.547-2.414-4.626-4.129
			h-0.271l-0.005,4.598l-5.95-0.007l0.053-48.408l6.22,0.007l-0.017,15.28l-0.275,4.597h0.271c1.083-1.711,2.628-3.084,4.635-4.119
			c2.006-1.033,4.228-1.55,6.662-1.547c4.371,0.005,8.065,1.722,11.082,5.149c3.106,3.476,4.657,7.646,4.651,12.513
			c-0.005,4.913-1.565,9.082-4.678,12.503C1603.934,3290.816,1600.235,3292.525,1595.864,3292.52z M1594.856,3286.839
			c2.975,0.003,5.477-1.12,7.508-3.372c2.031-2.206,3.048-5.068,3.052-8.584c0.004-3.47-1.007-6.333-3.033-8.589
			c-2.026-2.255-4.526-3.386-7.5-3.389c-3.02-0.004-5.545,1.121-7.576,3.372c-1.986,2.252-2.98,5.113-2.984,8.583
			c-0.003,3.516,0.984,6.402,2.965,8.657C1589.313,3285.729,1591.836,3286.835,1594.856,3286.839z"/>
		<path style="fill:#ADADAD;" d="M1643.675,3282.295c-0.003,2.885-1.269,5.316-3.794,7.298c-2.527,1.979-5.706,2.968-9.537,2.964
			c-3.336-0.004-6.264-0.875-8.786-2.613c-2.523-1.737-4.322-4.027-5.401-6.868l5.546-2.36c0.81,1.985,1.991,3.53,3.544,4.636
			c1.554,1.106,3.254,1.66,5.103,1.662c1.983,0.002,3.64-0.424,4.971-1.279c1.33-0.854,1.997-1.867,1.998-3.04
			c0.002-2.118-1.619-3.675-4.863-4.671l-5.677-1.426c-6.445-1.629-9.663-4.743-9.658-9.341c0.003-3.019,1.233-5.44,3.692-7.264
			c2.458-1.823,5.603-2.731,9.435-2.728c2.93,0.003,5.577,0.705,7.942,2.104s4.019,3.272,4.963,5.616l-5.546,2.293
			c-0.63-1.397-1.653-2.492-3.072-3.282c-1.419-0.79-3.008-1.187-4.766-1.188c-1.623-0.001-3.077,0.402-4.362,1.213
			c-1.285,0.81-1.929,1.801-1.93,2.972c-0.002,1.894,1.777,3.247,5.337,4.063l5.001,1.29
			C1640.393,3273.975,1643.681,3277.291,1643.675,3282.295z"/>
		<path style="fill:#ADADAD;" d="M1658.182,3246.95c-0.001,1.218-0.431,2.254-1.288,3.109c-0.857,0.855-1.895,1.281-3.111,1.28
			s-2.254-0.43-3.108-1.287c-0.856-0.856-1.283-1.895-1.281-3.112c0.001-1.217,0.43-2.252,1.288-3.107
			c0.856-0.854,1.895-1.283,3.111-1.282s2.253,0.433,3.108,1.289S1658.183,3245.734,1658.182,3246.95z M1656.884,3258.376
			l-0.036,33.128l-6.22-0.007l0.036-33.128L1656.884,3258.376z"/>
		<path style="fill:#ADADAD;" d="M1679.091,3292.069c-2.705-0.003-4.946-0.839-6.724-2.509c-1.779-1.669-2.689-3.991-2.731-6.967
			l0.021-18.524l-5.814-0.007l0.006-5.679l5.814,0.007l0.011-10.142l6.22,0.007l-0.011,10.142l8.113,0.009l-0.006,5.679
			l-8.113-0.009l-0.018,16.496c-0.002,2.209,0.424,3.708,1.279,4.497c0.855,0.79,1.824,1.186,2.906,1.187
			c0.496,0.001,0.98-0.055,1.454-0.167c0.473-0.112,0.913-0.258,1.319-0.438l1.955,5.547
			C1683.148,3291.78,1681.254,3292.072,1679.091,3292.069z"/>
		<path style="fill:#ADADAD;" d="M1705.796,3292.639c-4.868-0.005-8.878-1.677-12.029-5.016s-4.724-7.556-4.719-12.649
			c0.006-5.047,1.542-9.249,4.611-12.604c3.069-3.354,6.992-5.029,11.77-5.024c4.912,0.006,8.821,1.599,11.725,4.78
			c2.904,3.181,4.353,7.633,4.346,13.356l-0.068,0.676l-26.03-0.028c0.086,3.245,1.166,5.862,3.237,7.847
			c2.07,1.986,4.549,2.979,7.434,2.982c3.965,0.005,7.078-1.975,9.336-5.938l5.541,2.71c-1.491,2.793-3.555,4.978-6.194,6.552
			C1712.118,3291.857,1709.131,3292.643,1705.796,3292.639z M1695.881,3270.993l18.998,0.021c-0.178-2.299-1.111-4.204-2.799-5.716
			c-1.689-1.512-3.953-2.27-6.792-2.273c-2.344-0.002-4.362,0.718-6.053,2.158
			C1697.542,3266.623,1696.424,3268.56,1695.881,3270.993z"/>
		<path style="fill:#ADADAD;" d="M1754.213,3282.415c-0.003,2.885-1.268,5.316-3.793,7.298c-2.527,1.979-5.706,2.968-9.537,2.964
			c-3.336-0.004-6.264-0.875-8.786-2.613c-2.523-1.737-4.322-4.027-5.401-6.868l5.546-2.36c0.81,1.985,1.991,3.53,3.544,4.636
			c1.554,1.106,3.254,1.66,5.103,1.662c1.983,0.002,3.64-0.424,4.971-1.28c1.33-0.854,1.997-1.866,1.998-3.039
			c0.002-2.118-1.619-3.675-4.863-4.671l-5.677-1.426c-6.445-1.629-9.663-4.743-9.658-9.341c0.003-3.019,1.233-5.44,3.692-7.264
			c2.458-1.823,5.603-2.731,9.435-2.728c2.93,0.003,5.577,0.705,7.942,2.104c2.364,1.399,4.02,3.272,4.962,5.616l-5.545,2.293
			c-0.63-1.397-1.653-2.492-3.072-3.282c-1.419-0.79-3.008-1.187-4.766-1.188c-1.623-0.002-3.077,0.402-4.362,1.212
			c-1.285,0.811-1.929,1.802-1.93,2.973c-0.002,1.894,1.777,3.247,5.337,4.063l5.001,1.29
			C1750.931,3274.095,1754.219,3277.411,1754.213,3282.415z"/>
		<path style="fill:#ADADAD;" d="M1763.051,3299.192l-2.904-1.897l3.657-5.675c-0.947-0.181-1.748-0.654-2.399-1.422
			c-0.653-0.767-0.979-1.691-0.978-2.772c0.002-1.307,0.453-2.4,1.356-3.278c0.901-0.878,1.984-1.316,3.247-1.314
			c1.307,0.001,2.399,0.441,3.277,1.321s1.316,1.975,1.314,3.281c-0.001,1.217-0.453,2.546-1.356,3.986L1763.051,3299.192z"/>
		<path style="fill:#ADADAD;" d="M1810.789,3292.753c-5.364-0.006-9.69-1.769-12.976-5.288c-3.287-3.474-4.927-8.073-4.92-13.798
			l0.033-30.424l6.22,0.007l-0.034,30.694c-0.004,3.967,1.029,7.101,3.101,9.401c2.069,2.3,4.932,3.453,8.582,3.457
			c3.651,0.004,6.514-1.143,8.591-3.438c2.075-2.296,3.115-5.428,3.119-9.395l0.034-30.694l6.221,0.007l-0.033,30.424
			c-0.007,5.86-1.635,10.501-4.884,13.922C1820.594,3291.051,1816.242,3292.759,1810.789,3292.753z"/>
		<path style="fill:#ADADAD;" d="M1844.934,3291.708l-6.22-0.007l0.053-48.408l6.22,0.007L1844.934,3291.708z"/>
		<path style="fill:#ADADAD;" d="M1902.138,3283.386l4.523,5.955l-4.668,3.511l-3.31-4.398c-3.293,2.927-7.035,4.388-11.227,4.383
			c-4.913-0.006-9.082-1.655-12.503-4.949c-3.422-3.294-5.131-7.353-5.125-12.176c0.003-2.84,0.761-5.531,2.274-8.076
			c1.511-2.544,3.554-4.604,6.124-6.18c-2.34-3.021-3.509-5.705-3.507-8.049c0.004-3.064,1.156-5.689,3.457-7.873
			c2.302-2.184,5.051-3.273,8.252-3.27c2.569,0.003,4.799,0.737,6.69,2.204s3.264,3.463,4.118,5.988l-5.344,2.833
			c-1.26-3.382-3.083-5.074-5.472-5.076c-1.578-0.002-2.873,0.471-3.889,1.415c-1.015,0.945-1.523,2.208-1.525,3.785
			c-0.001,1.532,0.515,2.975,1.551,4.328l16,20.976l4.335-7.229l4.864,2.979L1902.138,3283.386z M1875.509,3275.718
			c-0.004,3.245,1.143,5.962,3.439,8.15c2.295,2.189,5.134,3.284,8.515,3.288c3.199,0.003,5.792-1.075,7.777-3.236l-13.569-17.932
			c-1.895,1.035-3.395,2.431-4.5,4.187C1876.063,3271.932,1875.511,3273.781,1875.509,3275.718z"/>
		<path style="fill:#ADADAD;" d="M1947.087,3292.901c-5.364-0.006-9.69-1.769-12.976-5.287c-3.287-3.475-4.927-8.074-4.92-13.799
			l0.033-30.424l6.22,0.007l-0.034,30.694c-0.004,3.967,1.029,7.101,3.101,9.402c2.069,2.3,4.932,3.452,8.582,3.456
			c3.651,0.004,6.514-1.143,8.591-3.438c2.075-2.297,3.115-5.429,3.119-9.396l0.034-30.694l6.221,0.007l-0.033,30.424
			c-0.007,5.86-1.635,10.501-4.884,13.923S1952.54,3292.906,1947.087,3292.901z"/>
		<path style="fill:#ADADAD;" d="M1978.526,3291.853l-7.302-0.008l16.253-24.998l-15.254-23.409l7.437,0.008l11.744,18.538
			l0.271,0.001l11.784-18.513l7.437,0.008l-15.305,23.376l16.199,25.033l-7.302-0.008l-12.824-19.823l-0.271-0.001
			L1978.526,3291.853z"/>
	</g>
	<g style="opacity:0.45;clip-path:url(#SVGID_00000034809583811220831380000015193500481560396976_);">
		<ellipse style="opacity:0.5;fill:#FFFFFF;" cx="1750" cy="2856.733" rx="903.712" ry="91.467"/>
		<ellipse style="opacity:0.5091;fill:#FDFDFD;" cx="1750" cy="2856.733" rx="888.735" ry="89.951"/>
		<ellipse style="opacity:0.5182;fill:#FBFBFB;" cx="1750" cy="2856.733" rx="873.757" ry="88.435"/>
		<ellipse style="opacity:0.5273;fill:#F9F9F9;" cx="1750" cy="2856.733" rx="858.78" ry="86.919"/>
		<ellipse style="opacity:0.5364;fill:#F6F6F6;" cx="1750" cy="2856.733" rx="843.802" ry="85.404"/>
		<ellipse style="opacity:0.5455;fill:#F4F4F4;" cx="1750" cy="2856.733" rx="828.825" ry="83.888"/>
		<ellipse style="opacity:0.5545;fill:#F2F2F2;" cx="1750" cy="2856.733" rx="813.847" ry="82.372"/>
		<ellipse style="opacity:0.5636;fill:#F0F0F0;" cx="1750" cy="2856.733" rx="798.87" ry="80.856"/>
		<ellipse style="opacity:0.5727;fill:#EEEEEE;" cx="1750" cy="2856.733" rx="783.893" ry="79.34"/>
		<ellipse style="opacity:0.5818;fill:#ECECEC;" cx="1750" cy="2856.733" rx="768.915" ry="77.824"/>
		<ellipse style="opacity:0.5909;fill:#EAEAEA;" cx="1750" cy="2856.733" rx="753.938" ry="76.308"/>
		<ellipse style="opacity:0.6;fill:#E7E7E7;" cx="1750" cy="2856.733" rx="738.96" ry="74.792"/>
		<ellipse style="opacity:0.6091;fill:#E5E5E5;" cx="1750" cy="2856.733" rx="723.983" ry="73.276"/>
		<ellipse style="opacity:0.6182;fill:#E3E3E3;" cx="1750" cy="2856.733" rx="709.005" ry="71.76"/>
		<ellipse style="opacity:0.6273;fill:#E1E1E1;" cx="1750" cy="2856.733" rx="694.028" ry="70.244"/>
		<ellipse style="opacity:0.6364;fill:#DFDFDF;" cx="1750" cy="2856.733" rx="679.051" ry="68.729"/>
		<ellipse style="opacity:0.6455;fill:#DDDDDD;" cx="1750" cy="2856.733" rx="664.073" ry="67.213"/>
		<ellipse style="opacity:0.6545;fill:#DBDBDB;" cx="1750" cy="2856.733" rx="649.096" ry="65.697"/>
		<ellipse style="opacity:0.6636;fill:#D8D8D8;" cx="1750" cy="2856.733" rx="634.118" ry="64.181"/>
		<ellipse style="opacity:0.6727;fill:#D6D6D6;" cx="1750" cy="2856.733" rx="619.141" ry="62.665"/>
		<ellipse style="opacity:0.6818;fill:#D4D4D4;" cx="1750" cy="2856.733" rx="604.163" ry="61.149"/>
		<ellipse style="opacity:0.6909;fill:#D2D2D2;" cx="1750" cy="2856.733" rx="589.186" ry="59.633"/>
		<ellipse style="opacity:0.7;fill:#D0D0D0;" cx="1750" cy="2856.733" rx="574.208" ry="58.117"/>
		<ellipse style="opacity:0.7091;fill:#CECECE;" cx="1750" cy="2856.733" rx="559.231" ry="56.601"/>
		<ellipse style="opacity:0.7182;fill:#CCCCCC;" cx="1750" cy="2856.733" rx="544.254" ry="55.085"/>
		<ellipse style="opacity:0.7273;fill:#C9C9C9;" cx="1750" cy="2856.733" rx="529.276" ry="53.569"/>
		<ellipse style="opacity:0.7364;fill:#C7C7C7;" cx="1750" cy="2856.733" rx="514.299" ry="52.054"/>
		<ellipse style="opacity:0.7455;fill:#C5C5C5;" cx="1750" cy="2856.733" rx="499.321" ry="50.538"/>
		<ellipse style="opacity:0.7545;fill:#C3C3C3;" cx="1750" cy="2856.733" rx="484.344" ry="49.022"/>
		<ellipse style="opacity:0.7636;fill:#C1C1C1;" cx="1750" cy="2856.733" rx="469.366" ry="47.506"/>
		<ellipse style="opacity:0.7727;fill:#BFBFBF;" cx="1750" cy="2856.733" rx="454.389" ry="45.99"/>
		<ellipse style="opacity:0.7818;fill:#BCBCBC;" cx="1750" cy="2856.733" rx="439.412" ry="44.474"/>
		<ellipse style="opacity:0.7909;fill:#BABABA;" cx="1750" cy="2856.733" rx="424.434" ry="42.958"/>
		<ellipse style="opacity:0.8;fill:#B8B8B8;" cx="1750" cy="2856.733" rx="409.457" ry="41.442"/>
		<ellipse style="opacity:0.8091;fill:#B6B6B6;" cx="1750" cy="2856.733" rx="394.479" ry="39.926"/>
		<ellipse style="opacity:0.8182;fill:#B4B4B4;" cx="1750" cy="2856.733" rx="379.502" ry="38.41"/>
		<ellipse style="opacity:0.8273;fill:#B2B2B2;" cx="1750" cy="2856.733" rx="364.524" ry="36.894"/>
		<ellipse style="opacity:0.8364;fill:#B0B0B0;" cx="1750" cy="2856.733" rx="349.547" ry="35.379"/>
		<ellipse style="opacity:0.8455;fill:#ADADAD;" cx="1750" cy="2856.733" rx="334.57" ry="33.863"/>
		<ellipse style="opacity:0.8545;fill:#ABABAB;" cx="1750" cy="2856.733" rx="319.592" ry="32.347"/>
		<ellipse style="opacity:0.8636;fill:#A9A9A9;" cx="1750" cy="2856.733" rx="304.615" ry="30.831"/>
		<ellipse style="opacity:0.8727;fill:#A7A7A7;" cx="1750" cy="2856.733" rx="289.637" ry="29.315"/>
		<ellipse style="opacity:0.8818;fill:#A5A5A5;" cx="1750" cy="2856.733" rx="274.66" ry="27.799"/>
		<ellipse style="opacity:0.8909;fill:#A3A3A3;" cx="1750" cy="2856.733" rx="259.682" ry="26.283"/>
		<ellipse style="opacity:0.9;fill:#A1A1A1;" cx="1750" cy="2856.733" rx="244.705" ry="24.767"/>
		<ellipse style="opacity:0.9091;fill:#9E9E9E;" cx="1750" cy="2856.733" rx="229.727" ry="23.251"/>
		<ellipse style="opacity:0.9182;fill:#9C9C9C;" cx="1750" cy="2856.733" rx="214.75" ry="21.735"/>
		<ellipse style="opacity:0.9273;fill:#9A9A9A;" cx="1750" cy="2856.733" rx="199.773" ry="20.219"/>
		<ellipse style="opacity:0.9364;fill:#989898;" cx="1750" cy="2856.733" rx="184.795" ry="18.704"/>
		<ellipse style="opacity:0.9455;fill:#969696;" cx="1750" cy="2856.733" rx="169.818" ry="17.188"/>
		<ellipse style="opacity:0.9545;fill:#949494;" cx="1750" cy="2856.733" rx="154.84" ry="15.672"/>
		<ellipse style="opacity:0.9636;fill:#929292;" cx="1750" cy="2856.733" rx="139.863" ry="14.156"/>
		<ellipse style="opacity:0.9727;fill:#8F8F8F;" cx="1750" cy="2856.733" rx="124.885" ry="12.64"/>
		<ellipse style="opacity:0.9818;fill:#8D8D8D;" cx="1750" cy="2856.733" rx="109.908" ry="11.124"/>
		<ellipse style="opacity:0.9909;fill:#8B8B8B;" cx="1750" cy="2856.733" rx="94.931" ry="9.608"/>
		<ellipse style="fill:#898989;" cx="1750" cy="2856.733" rx="79.953" ry="8.092"/>
	</g>
	<g style="clip-path:url(#SVGID_00000034809583811220831380000015193500481560396976_);">
		<path style="fill:#383838;" d="M1549.5,430.979c11.507,0,21.328,4.446,29.465,13.338c8.135,8.892,12.205,19.789,12.205,32.69
			c0,12.902-4.07,23.799-12.205,32.691c-8.137,8.892-17.958,13.338-29.465,13.338c-11.158,0-19.819-3.544-25.978-10.635v43.064
			h-26.153V433.419h26.153v8.194C1529.681,434.525,1538.342,430.979,1549.5,430.979z M1529.362,492.524
			c3.893,3.835,8.862,5.753,14.907,5.753c6.042,0,11.011-1.918,14.907-5.753c3.893-3.836,5.84-9.006,5.84-15.518
			c0-6.508-1.948-11.681-5.84-15.517c-3.896-3.836-8.865-5.753-14.907-5.753c-6.045,0-11.014,1.918-14.907,5.753
			c-3.896,3.836-5.84,9.009-5.84,15.517C1523.522,483.518,1525.467,488.689,1529.362,492.524z"/>
		<path style="fill:#383838;" d="M1632.14,448.936c1.626-5.579,4.909-9.851,9.851-12.815c4.939-2.964,10.374-4.446,16.302-4.446
			v29.64c-6.394-1.046-12.352,0.03-17.871,3.226c-5.522,3.198-8.281,8.748-8.281,16.65v39.403h-26.153v-87.175h26.153V448.936z"/>
		<path style="fill:#383838;" d="M1742.504,509.698c-8.952,8.892-19.876,13.338-32.778,13.338s-23.829-4.446-32.778-13.338
			c-8.952-8.892-13.425-19.789-13.425-32.691c0-12.902,4.473-23.799,13.425-32.69c8.949-8.892,19.876-13.338,32.778-13.338
			s23.826,4.446,32.778,13.338c8.949,8.892,13.425,19.789,13.425,32.69C1755.929,489.909,1751.453,500.806,1742.504,509.698z
			 M1695.429,491.827c3.836,3.836,8.601,5.754,14.297,5.754c5.693,0,10.461-1.918,14.297-5.754c3.835-3.835,5.753-8.774,5.753-14.82
			c0-6.042-1.918-10.984-5.753-14.82c-3.836-3.835-8.604-5.753-14.297-5.753c-5.696,0-10.461,1.918-14.297,5.753
			c-3.835,3.836-5.753,8.778-5.753,14.82C1689.676,483.052,1691.594,487.991,1695.429,491.827z"/>
		<path style="fill:#383838;" d="M1816.079,421.215c-10.81-0.929-16.214,3.138-16.214,12.205h16.214v25.107h-16.214v62.069h-26.153
			v-62.069h-11.682v-25.107h11.682c0-12.554,3.544-22.113,10.635-28.681c7.089-6.565,17.667-9.442,31.732-8.63V421.215z"/>
		<path style="fill:#383838;" d="M1849.814,421.127c-3.081,3.081-6.772,4.62-11.071,4.62c-4.301,0-7.993-1.539-11.071-4.62
			c-3.081-3.078-4.62-6.77-4.62-11.071c0-4.299,1.539-7.99,4.62-11.071c3.079-3.078,6.77-4.62,11.071-4.62
			c4.299,0,7.99,1.542,11.071,4.62c3.079,3.081,4.621,6.772,4.621,11.071C1854.434,414.358,1852.892,418.049,1849.814,421.127z
			 M1825.666,520.595v-87.175h26.153v87.175H1825.666z"/>
		<path style="fill:#383838;" d="M1870.996,520.595V393.318h26.153v127.276H1870.996z"/>
		<path style="fill:#383838;" d="M1939.69,487.468c3.021,8.137,9.996,12.204,20.922,12.204c7.088,0,12.667-2.207,16.738-6.625
			l20.922,12.03c-8.603,11.973-21.271,17.958-38.008,17.958c-14.646,0-26.357-4.359-35.132-13.076
			c-8.777-8.718-13.164-19.702-13.164-32.953c0-13.133,4.329-24.087,12.989-32.865c8.658-8.774,19.789-13.163,33.388-13.163
			c12.667,0,23.216,4.389,31.645,13.163c8.426,8.778,12.641,19.732,12.641,32.865c0,3.722-0.349,7.208-1.046,10.461H1939.69z
			 M1939.167,467.941h37.485c-2.558-9.181-8.717-13.774-18.481-13.774C1948.059,454.167,1941.722,458.76,1939.167,467.941z"/>
	</g>
	<g style="clip-path:url(#SVGID_00000034809583811220831380000015193500481560396976_);">
		<circle style="fill:#EDEDED;" cx="1689.048" cy="1712.11" r="876.685"/>
		<path style="fill:#BFBFBF;" d="M1689.048,2588.795c262.551,0,498.134-115.425,658.805-298.286
			c-139.672-215.875-382.55-358.744-658.805-358.744c-276.256,0-519.133,142.869-658.806,358.744
			C1190.913,2473.37,1426.497,2588.795,1689.048,2588.795z"/>
		<circle style="fill:#BFBFBF;" cx="1689.048" cy="1503.802" r="333.976"/>
	</g>
</g>
</svg>
